Coordinates
version=1
nRows=25
nColumns=28
inDegrees=yes

Units are S.I. units (second, meters, Newtons, ...)
Angles are in degrees.

endheader
time	pelvis_tilt	pelvis_list	pelvis_rotation	pelvis_tx	pelvis_ty	pelvis_tz	hip_flexion_r	hip_adduction_r	hip_rotation_r	knee_angle_r	ankle_angle_r	subtalar_angle_r	mtp_angle_r	hip_flexion_l	hip_adduction_l	hip_rotation_l	knee_angle_l	socket_flexion	socket_adduction	socket_rotation	socket_tx	socket_ty	socket_tz	foot_flex	lumbar_extension	lumbar_bending	lumbar_rotation
      0.62500000	     -2.20971444	     -4.49246897	      7.94114626	     -0.01321072	      0.98600097	      0.25857855	     26.19691257	      3.48734261	     -8.79788750	     -5.15627602	     17.16980777	    -18.44619611	    -16.37491886	    -18.86080114	     -7.25267289	      1.01362078	     -6.57693706	      0.00000000	      0.00000000	      0.00000000	      0.00000000	      0.00000000	      0.00000000	      7.43901935	     -7.34317160	      5.02896103	     -6.29638493
      0.62916667	     -2.27074098	     -4.43142930	      7.92168508	     -0.01323863	      0.98589754	      0.25859584	     26.32300335	      3.40101913	     -8.86930694	     -5.29275445	     17.25541611	    -18.13109452	    -15.86242065	    -18.79937078	     -7.17551154	      1.03833609	     -6.58050995	      0.00000000	      0.00000000	      0.00000000	      0.00000000	      0.00000000	      0.00000000	      7.40466765	     -7.28770584	      4.92963302	     -6.19261180
      0.63333333	     -2.18269095	     -4.57622490	      8.05668670	     -0.00682886	      0.98497676	      0.25878845	     26.43407259	      3.56402346	     -8.73038408	     -6.07715140	     16.92531809	    -18.20794107	    -15.88825566	    -19.03566539	     -7.42254676	      1.02611406	     -6.95197846	      0.00000000	      0.00000000	      0.00000000	      0.00000000	      0.00000000	      0.00000000	      7.38689462	     -7.30503401	      5.17760218	     -6.27425683
      0.63750000	     -2.08789462	     -4.72661450	      8.07395447	     -0.00045380	      0.98407578	      0.25920666	     26.62858403	      3.77854716	     -8.66078095	     -7.00969537	     16.44530586	    -18.36345907	    -15.84573246	    -19.27510330	     -7.64146962	      0.92422197	     -7.37229858	      0.00000000	      0.00000000	      0.00000000	      0.00000000	      0.00000000	      0.00000000	      7.30251360	     -7.35010035	      5.46995050	     -6.38956841
      0.64166667	     -2.02040332	     -4.87215229	      8.11439647	      0.00595498	      0.98317454	      0.25960109	     26.82093156	      3.97428340	     -8.52464173	     -7.91308730	     15.96705636	    -18.48989738	    -15.74535118	    -19.46832148	     -7.85765267	      0.84110282	     -7.81103679	      0.00000000	      0.00000000	      0.00000000	      0.00000000	      0.00000000	      0.00000000	      7.20484857	     -7.35829227	      5.72283245	     -6.45456737
      0.64583333	     -2.00090765	     -5.01592109	      8.10976322	      0.01248812	      0.98220718	      0.26006842	     26.99942793	      4.19006507	     -8.28153245	     -8.64791633	     13.95529506	    -19.37375127	    -10.46381871	    -19.60745109	     -8.05227970	      0.72162696	     -8.28231113	      0.00000000	      0.00000000	      0.00000000	      0.00000000	      0.00000000	      0.00000000	      7.06526252	     -7.29710732	      5.95561966	     -6.44567387
      0.65000000	     -1.92693458	     -5.17413763	      8.12694183	      0.01892128	      0.98139442	      0.26051869	     27.21517052	      4.39751899	     -8.20356077	     -9.64000815	     13.50383119	    -19.41380356	    -10.47677919	    -19.75762122	     -8.27600551	      0.61307318	     -8.80996756	      0.00000000	      0.00000000	      0.00000000	      0.00000000	      0.00000000	      0.00000000	      6.92053296	     -7.30849026	      6.22457137	     -6.47639784
      0.65416667	     -1.86346354	     -5.34592413	      8.14702071	      0.02528182	      0.98066122	      0.26099205	     27.39620901	      4.62895719	     -8.03807770	    -10.53937666	     13.11376545	    -19.42379326	    -10.47457597	    -19.86280914	     -8.50979016	      0.61163026	     -9.38558592	      0.00000000	      0.00000000	      0.00000000	      0.00000000	      0.00000000	      0.00000000	      6.73452505	     -7.33335755	      6.50918318	     -6.48020870
      0.65833333	     -1.80527767	     -5.53538819	      8.08053051	      0.03188167	      0.97986535	      0.26158383	     27.65856853	      4.88599640	     -8.00932147	    -11.61794144	     12.54387488	    -19.51961338	    -10.40707143	    -19.99041969	     -8.73816275	      0.36025448	     -9.97033255	      0.00000000	      0.00000000	      0.00000000	      0.00000000	      0.00000000	      0.00000000	      6.54337949	     -7.29410371	      6.79252287	     -6.46839863
      0.66250000	     -1.76558573	     -5.74697522	      7.99742278	      0.03840474	      0.97914610	      0.26222618	     27.90302159	      5.17966310	     -7.89654230	    -12.61349616	     12.00819393	    -19.61005048	    -10.24229390	    -20.05764203	     -8.97978841	      0.17038299	    -10.61842530	      0.00000000	      0.00000000	      0.00000000	      0.00000000	      0.00000000	      0.00000000	      6.30410924	     -7.26531431	      7.09393250	     -6.39928572
      0.66666667	     -1.87592237	     -5.93701615	      7.82003376	      0.04499758	      0.97822410	      0.26306941	     28.21958469	      5.51470995	     -7.41748551	    -13.40507477	     10.15949638	    -20.71226182	     -6.07968088	    -19.96150093	     -9.15757246	     -0.07786540	    -11.30477768	      0.00000000	      0.00000000	      0.00000000	      0.00000000	      0.00000000	      0.00000000	      6.05100293	     -7.06514051	      7.31855557	     -6.14852456
      0.67083333	     -1.76430441	     -6.17986691	      7.75716930	      0.05159720	      0.97770749	      0.26368919	     28.38096826	      5.82511902	     -7.44178957	    -14.42276579	      9.76778840	    -20.65099790	     -6.04855186	    -20.06122576	     -9.44847686	     -0.25553663	    -12.02006844	      0.00000000	      0.00000000	      0.00000000	      0.00000000	      0.00000000	      0.00000000	      5.75665421	     -7.09904099	      7.67746264	     -6.10052367
      0.67500000	     -1.65921948	     -6.39342733	      7.75388788	      0.05802555	      0.97731938	      0.26428014	     28.46180034	      6.11151921	     -7.29398622	    -15.27162784	      9.49637876	    -20.60545830	     -6.04235357	    -20.06598790	     -9.72858158	     -0.28918839	    -12.84151733	      0.00000000	      0.00000000	      0.00000000	      0.00000000	      0.00000000	      0.00000000	      5.40986947	     -7.15575190	      7.98860883	     -6.06335781
      0.67916667	     -1.56736663	     -6.70238355	      7.54074249	      0.06483396	      0.97678232	      0.26505928	     28.68034228	      6.52407781	     -7.38207116	    -16.37720407	      9.00346196	    -20.59115482	     -5.95291593	    -20.16664083	    -10.03133679	     -0.70987361	    -13.59691782	      0.00000000	      0.00000000	      0.00000000	      0.00000000	      0.00000000	      0.00000000	      5.08984061	     -7.14375043	      8.40712956	     -5.91500892
      0.68333333	     -1.46103807	     -6.91895802	      7.53124774	      0.07125021	      0.97654213	      0.26569799	     28.71083828	      6.82303362	     -7.20089932	    -17.15497521	      8.79530635	    -20.54594437	     -5.93152313	    -20.10801416	    -10.31690707	     -0.72488788	    -14.51528528	      0.00000000	      0.00000000	      0.00000000	      0.00000000	      0.00000000	      0.00000000	      4.68510509	     -7.20174888	      8.70172191	     -5.85955966
      0.68750000	     -1.36715155	     -7.25856350	      7.25873580	      0.07811347	      0.97609220	      0.26653876	     28.90904443	      7.27995156	     -7.31401885	    -18.25132840	      8.35312977	    -20.56503079	     -5.84338770	    -20.17862077	    -10.63181806	     -1.20109950	    -15.35362982	      0.00000000	      0.00000000	      0.00000000	      0.00000000	      0.00000000	      0.00000000	      4.33513418	     -7.19201534	      9.16197549	     -5.67982711
      0.69166667	     -1.29342906	     -7.60011935	      7.04310326	      0.08492152	      0.97576662	      0.26737043	     28.99428375	      7.75824126	     -7.21471630	    -19.08975309	      8.03469338	    -20.52354165	     -5.63077113	    -20.15976567	    -10.97400921	     -1.57026533	    -16.26262052	      0.00000000	      0.00000000	      0.00000000	      0.00000000	      0.00000000	      0.00000000	      3.92232683	     -7.17313942	      9.58180449	     -5.38295937
      0.69583333	     -1.17831624	     -7.82314487	      6.97721780	      0.09138111	      0.97566890	      0.26810100	     28.97892359	      8.08222900	     -7.08295812	    -19.83168220	      7.87218737	    -20.49201831	     -5.58975160	    -20.04867147	    -11.25126874	     -1.64397529	    -17.30565675	      0.00000000	      0.00000000	      0.00000000	      0.00000000	      0.00000000	      0.00000000	      3.46755344	     -7.23745510	      9.87069226	     -5.31209900
      0.70000000	     -1.06388903	     -8.06560704	      6.87904746	      0.09790428	      0.97557947	      0.26888357	     28.97225300	      8.43270721	     -7.00659045	    -20.60571748	      7.70691914	    -20.46374585	     -5.55786655	    -19.93030791	    -11.54240320	     -1.79359452	    -18.37054903	      0.00000000	      0.00000000	      0.00000000	      0.00000000	      0.00000000	      0.00000000	      3.00932483	     -7.29853329	     10.18433180	     -5.23780022
      0.70416667	     -1.00922873	     -8.54007540	      6.47052541	      0.10506270	      0.97524821	      0.26982325	     29.08913355	      9.06538510	     -7.15414575	    -21.51383522	      7.42162554	    -20.40326427	     -5.37365902	    -19.94307352	    -11.95798462	     -2.50252719	    -19.30204120	      0.00000000	      0.00000000	      0.00000000	      0.00000000	      0.00000000	      0.00000000	      2.63592431	     -7.22095658	     10.78610984	     -4.87757689
      0.70833333	     -0.91471100	     -8.89949071	      6.21259070	      0.11188514	      0.97518162	      0.27074379	     29.01507572	      9.59873596	     -7.01753104	    -22.13953773	      7.26890126	    -20.29399135	     -5.06839566	    -19.85818457	    -12.32237752	     -2.91771908	    -20.36473913	      0.00000000	      0.00000000	      0.00000000	      0.00000000	      0.00000000	      0.00000000	      2.19454638	     -7.23193071	     11.19798910	     -4.46277112
      0.71250000	     -0.80042202	     -9.10505637	      6.08806860	      0.11832795	      0.97527356	      0.27157098	     28.92175018	      9.92812828	     -6.95239534	    -22.78053024	      7.19057274	    -20.26021789	     -5.01279047	    -19.66372119	    -12.57451178	     -3.03471596	    -21.53399846	      0.00000000	      0.00000000	      0.00000000	      0.00000000	      0.00000000	      0.00000000	      1.74299338	     -7.31953898	     11.44321469	     -4.39645975
      0.71666667	     -0.68327456	     -9.31629517	      5.95640476	      0.12485989	      0.97538713	      0.27238678	     28.80171070	     10.26296545	     -6.90531325	    -23.40296078	      7.13352874	    -20.21329747	     -4.96368684	    -19.46880647	    -12.83425453	     -3.20138974	    -22.70579963	      0.00000000	      0.00000000	      0.00000000	      0.00000000	      0.00000000	      0.00000000	      1.31092435	     -7.36982385	     11.69846434	     -4.32319965
      0.72083333	     -0.63142871	     -9.80814507	      5.56020218	      0.13198511	      0.97531377	      0.27337030	     28.72723170	     10.94314663	     -6.96388322	    -23.99130679	      7.13996898	    -19.97717456	     -4.66718768	    -19.38032610	    -13.30317577	     -3.89383848	    -23.76862535	      0.00000000	      0.00000000	      0.00000000	      0.00000000	      0.00000000	      0.00000000	      0.99840542	     -7.30187849	     12.27985443	     -3.86841805
      0.72500000	     -0.51245074	     -9.96278295	      5.43188931	      0.13840692	      0.97557768	      0.27421733	     28.53555669	     11.23423599	     -6.89779153	    -24.50612918	      7.12028955	    -19.91798838	     -4.61341198	    -19.13192900	    -13.51561125	     -4.01059225	    -24.98506211	      0.00000000	      0.00000000	      0.00000000	      0.00000000	      0.00000000	      0.00000000	      0.59214922	     -7.38202878	     12.45753985	     -3.80338634
